<svg xmlns="http://www.w3.org/2000/svg" xmlns:xlink="http://www.w3.org/1999/xlink"
    aria-label="Amazon Simple Storage Service" role="img" viewBox="0 0 512 512">
    <path fill="#444" d="M260 348l-137 33V131l137 32z" />
    <path fill="#1a1a1a" d="M256 349l133 32V131l-133 32v186" />
    <g fill="#444">
        <path id="a" d="M256 64v97l58 14V93zm133 67v250l26-13V143zm-133 77v97l58-8v-82zm58 129l-58 14v97l58-29z" />
    </g>
    <use fill="#1a1a1a" transform="rotate(180 256 256)" xlink:href="#a" />
    <path fill="#1f1f1f" d="M314 175l-58 11-58-11 58-15 58 15" />
    <path fill="#1t1t1t" d="M314 337l-58-11-58 11 58 16 58-16" />
</svg>