<svg xmlns="http://www.w3.org/2000/svg" version="1.1" width="26" height="26" style="">
    <rect id="backgroundrect" width="100%" height="100%" x="0" y="0" fill="none" stroke="none" class="" style="" />

    <g class="currentLayer" style="">
        <title>Layer 1</title>
        <path
            d="m13.01700064074993,17.74328694242351 zm-11.274000000000001,-17.468970234692094 l2.049,22.907526674091816 l9.194,2.543840915203095 l9.22,-2.54782812666893 l2.051,-22.903539462625982 h-22.514 zm18.257,5.2391958661079405 l-0.6930000000000022,7.742167863786221 l-0.4800000000000003,5.341866561353207 l-0.042000000000000114,0.4744781644344339 l-5.781,1.5978749949336053 l-5.773,-1.5978749949336053 l-0.39500000000000096,-4.41184948694706 h2.829 l0.201,2.240812843799591 l3.142,0.8442920278906826 l0.008000000000000024,-0.001993605732917786 h0.0020000000000000057 l3.134,-0.8432952250242236 l0.32900000000000085,-3.6433144769072534 h-6.579 l-0.056000000000000105,-0.6309762144684827 l-0.129,-1.4244312961697578 l-0.0670000000000002,-0.753582967042921 h7.081 l0.258,-2.8767730726003657 h-10.786 l-0.056000000000000105,-0.6319730173349399 l-0.129,-1.4244312961697578 l-0.0670000000000002,-0.753582967042921 h14.118 l-0.0680000000000002,0.753582967042921 z"
            fill="#c33232" id="svg_1" class="" />
    </g>
</svg>