<?xml version="1.0" encoding="UTF-8"?>
<!DOCTYPE svg  PUBLIC '-//W3C//DTD SVG 1.1//EN'  'http://www.w3.org/Graphics/SVG/1.1/DTD/svg11.dtd'>
<svg version="1.1" viewBox="0 0 32 32" xmlns="http://www.w3.org/2000/svg">
<path d="m16.017 21.044zm-11.274-17.525l2.049 22.981 9.194 2.552 9.22-2.556 2.051-22.977h-22.514zm18.257 5.256l-0.693 7.767-0.48 5.359-0.042 0.476-5.781 1.603-5.773-1.603-0.395-4.426h2.829l0.201 2.248 3.142 0.847 8e-3 -2e-3h2e-3l3.134-0.846 0.329-3.655h-6.579l-0.056-0.633-0.129-1.429-0.067-0.756h7.081l0.258-2.886h-10.786l-0.056-0.634-0.129-1.429-0.067-0.756h14.118l-0.068 0.756z" fill="#444"/>
</svg>
