<svg xmlns="http://www.w3.org/2000/svg" preserveAspectRatio="xMidYMid meet" viewBox="0 0 32 32"  xmlns:v="https://vecta.io/nano"><path d="M18.734 3.667l6.578 3.802A2.863 2.863 0 0 1 29.859 8a2.859 2.859 0 0 1-1.808 4.203v7.599A2.842 2.842 0 0 1 29.853 24a2.859 2.859 0 0 1-4.604.474l-6.542 3.776A2.854 2.854 0 0 1 15.998 32a2.85 2.85 0 0 1-2.734-3.662l-6.583-3.797a2.85 2.85 0 0 1-4.036.094 2.859 2.859 0 0 1 1.302-4.838v-7.599a2.852 2.852 0 1 1 2.094-5.24 2.84 2.84 0 0 1 .641.5l6.583-3.797a2.85 2.85 0 1 1 5.469.005zm-.687 1.172l-.078.078 8.615 14.917.109-.031v-7.609a2.84 2.84 0 0 1-2.073-3.448l.021-.099zm-4.021.078l-.078-.078-6.594 3.802a2.85 2.85 0 0 1-1.948 3.526l-.104.026v7.609l.115.031 8.615-14.917zm2.771.677a2.937 2.937 0 0 1-1.589 0L6.593 20.511a2.92 2.92 0 0 1 .802 1.391h17.214a2.88 2.88 0 0 1 .802-1.396zm1.312 21.635l6.552-3.786c-.021-.063-.036-.125-.052-.188H7.39l-.031.109 6.589 3.802a2.84 2.84 0 0 1 2.052-.87c.839 0 1.589.359 2.109.932z" fill="#444"/></svg>