<svg xmlns="http://www.w3.org/2000/svg" xmlns:v="https://vecta.io/nano" width="26" height="26">
    <rect id="backgroundrect" width="100%" height="100%" x="0" y="0" fill="none" stroke="none" class="" style="" />
    <g class="currentLayer" style="">
        <title>Layer 1</title>
        <path fill="#c33232"
            d="M1.6654992485046387,0.1250007019042969 l2.063,23.176 l9.258,2.574 l9.284,-2.5780000000000003 l2.065,-23.172 H1.6644992485046386 zm4.286,5.5 l-0.06800000000000005,-0.7630000000000003 h7.107 v2.842 h-4.005 l0.259,2.911 h3.746 v2.842 H6.6494992485046405 L5.951499248504639,5.624000701904297 zm13.567,5.7540000000000004 l-0.6670000000000005,7.483 l-0.04300000000000003,0.48000000000000015 l-5.822,1.616 l-5.814,-1.616 l-0.3980000000000003,-4.463 h2.849 l0.202,2.267 l3.1630000000000003,0.8540000000000003 l3.165,-0.8560000000000003 l0.3290000000000002,-3.686 h-3.485 v-2.842 h6.587 l-0.06900000000000005,0.7630000000000003 zm0.514,-5.7540000000000004 l-0.129,1.441 l-0.05700000000000002,0.6390000000000003 H13.000499248504639 V4.863000701904298 h7.1 l-0.06800000000000005,0.7620000000000003 z"
            id="svg_1" class="" />
    </g>
</svg>