<svg xmlns="http://www.w3.org/2000/svg" xmlns:v="https://vecta.io/nano" width="31" height="31">
    <rect id="backgroundrect" width="100%" height="100%" x="0" y="0" fill="none" stroke="none" class="" style="" />
    <g class="currentLayer" style="">
        <title>Layer 1</title>
        <path fill="#c33232"
            d="M22.28332049560547,13.77799942445755 c-0.06700000000000012,-0.774 -0.20900000000000019,-1.546 -0.4070000000000003,-2.297 c-0.6250000000000008,-2.369 -1.6660000000000008,-4.6370000000000005 -3.134,-6.603 a16.58,16.58 0 0 0 -1.294,-1.532 c-0.4760000000000003,-0.4990000000000004 -1.004,-0.9570000000000006 -1.336,-1.578 l-0.6140000000000008,-1.187 l-0.011000000000000022,0.3710000000000004 l0.011000000000000022,-0.3720000000000004 l-0.13,-0.32700000000000046 c-0.022000000000000047,0.07500000000000002 -0.03600000000000001,0.101 -0.03600000000000001,0.129 c-0.017000000000000032,0.6450000000000009 -0.38300000000000045,1.083 -0.8380000000000006,1.492 l-1.481,1.441 l0.05500000000000005,0.0660000000000001 l-0.05500000000000005,-0.0660000000000001 c-1.463,1.924 -2.7520000000000002,3.981 -3.511,6.29 a14.69,14.69 0 0 0 -0.517,2.056 c-0.259,1.481 -0.3790000000000004,2.92 -0.2960000000000003,4.42 a11.97,11.97 0 0 0 0.4070000000000003,2.448 c0.785,2.917 2.379,5.336 4.558,7.392 l1.2650000000000001,1.093 l0.18700000000000022,0.6420000000000009 l0.17400000000000004,0.996 l0.08300000000000012,1.039 l0.003000000000000007,0.6330000000000009 c0.003000000000000007,0.05400000000000009 0.07400000000000002,0.10400000000000002 0.1130000000000001,0.15600000000000022 l0.3530000000000003,0.1240000000000001 l0.3670000000000003,0.14300000000000004 l-0.0630000000000001,-0.924 l-0.003000000000000007,-0.91 c-0.006000000000000014,0.007000000000000014 -0.014000000000000012,0.014000000000000012 -0.021000000000000033,0.021000000000000033 l0.021000000000000033,-0.021000000000000033 l0.127,-1.3860000000000001 l0.09200000000000018,-0.3020000000000003 l0.263,-0.467 l0.971,-0.79 l1.55,-1.637 c0.6220000000000008,-0.7480000000000008 1.158,-1.565 1.588,-2.441 c1.223,-2.491 1.7890000000000001,-5.269 1.564,-8.039 l-0.006000000000000014,-0.07400000000000002 z"
            id="svg_1" class="" />
    </g>
</svg>