<svg xmlns="http://www.w3.org/2000/svg" width="32" height="32" xmlns:v="https://vecta.io/nano">
    <path fill="#444"
        d="M22.797 14.562c-.067-.774-.209-1.546-.407-2.297-.625-2.369-1.666-4.637-3.134-6.603a16.58 16.58 0 0 0-1.294-1.532c-.476-.499-1.004-.957-1.336-1.578l-.614-1.187-.011.371.011-.372-.13-.327c-.022.075-.036.101-.036.129-.017.645-.383 1.083-.838 1.492l-1.481 1.441.055.066-.055-.066c-1.463 1.924-2.752 3.981-3.511 6.29a14.69 14.69 0 0 0-.517 2.056c-.259 1.481-.379 2.92-.296 4.42a11.97 11.97 0 0 0 .407 2.448c.785 2.917 2.379 5.336 4.558 7.392l1.265 1.093.187.642.174.996.083 1.039.003.633c.003.054.074.104.113.156l.353.124.367.143-.063-.924-.003-.91c-.006.007-.014.014-.021.021l.021-.021.127-1.386.092-.302.263-.467.971-.79 1.55-1.637c.622-.748 1.158-1.565 1.588-2.441 1.223-2.491 1.789-5.269 1.564-8.039l-.006-.074z" />
</svg>