<svg xmlns="http://www.w3.org/2000/svg" xmlns:xlink="http://www.w3.org/1999/xlink" version="1.1" width="25" height="25">
    <rect id="backgroundrect" width="100%" height="100%" x="0" y="0" fill="none" stroke="none" class="" style="" />

    <g class="currentLayer" style="">
        <title>Layer 1</title>
        <path fill="#444"
            d="M12.494497392654418,25.108626861572265 c-0.3370000000000003,0 -0.6730000000000006,-0.08800000000000006 -0.9690000000000003,-0.259 l-3.086,-1.826 c-0.46,-0.257 -0.23500000000000001,-0.3490000000000003 -0.08300000000000005,-0.402 c0.6140000000000003,-0.21300000000000008 0.7390000000000003,-0.262 1.3940000000000001,-0.6350000000000003 c0.06900000000000005,-0.03800000000000001 0.15900000000000009,-0.02400000000000001 0.231,0.01800000000000001 l2.37,1.407 c0.08700000000000006,0.04800000000000002 0.20700000000000007,0.04800000000000002 0.28700000000000014,0 l9.241,-5.333 c0.08600000000000005,-0.04900000000000002 0.14100000000000001,-0.14900000000000008 0.14100000000000001,-0.25 v-10.665000000000001 c0,-0.10400000000000002 -0.05500000000000002,-0.202 -0.14300000000000004,-0.255 l-9.237,-5.329 c-0.08600000000000005,-0.05000000000000003 -0.19900000000000012,-0.05000000000000003 -0.28500000000000014,0 l-9.235,5.331 c-0.09000000000000007,0.05100000000000003 -0.14600000000000007,0.15200000000000008 -0.14600000000000007,0.253 v10.666 c0,0.10200000000000002 0.05600000000000002,0.1980000000000001 0.14500000000000007,0.24700000000000008 l2.532,1.462 c1.374,0.6870000000000006 2.215,-0.12200000000000004 2.215,-0.935 v-10.53 c0,-0.14900000000000008 0.12000000000000002,-0.266 0.269,-0.266 h1.172 c0.14600000000000007,0 0.267,0.11700000000000005 0.267,0.266 v10.53 c0,1.8330000000000002 -0.998,2.8850000000000002 -2.736,2.8850000000000002 c-0.534,0 -0.9550000000000003,0 -2.129,-0.5790000000000003 l-2.423,-1.395 c-0.5980000000000003,-0.3460000000000003 -0.9690000000000003,-0.993 -0.9690000000000003,-1.6860000000000006 v-10.665000000000001 c0,-0.6930000000000006 0.37100000000000016,-1.339 0.9690000000000003,-1.6840000000000006 l9.242,-5.34 c0.5850000000000003,-0.3310000000000002 1.362,-0.3310000000000002 1.9420000000000002,0 l9.241,5.34 c0.5990000000000003,0.3460000000000003 0.971,0.992 0.971,1.6840000000000006 v10.665000000000001 c0,0.6930000000000006 -0.37200000000000016,1.3370000000000002 -0.971,1.6860000000000006 l-9.241,5.335 c-0.29600000000000015,0.171 -0.6310000000000003,0.259 -0.973,0.259 zM15.34949739265442,17.760626861572266 c-4.045,0 -4.892,-1.8570000000000002 -4.892,-3.414 c0,-0.14800000000000008 0.11800000000000006,-0.266 0.266,-0.266 h1.195 c0.133,0 0.24500000000000008,0.09600000000000009 0.265,0.2260000000000001 c0.18000000000000008,1.216 0.7170000000000003,1.831 3.164,1.831 c1.9460000000000002,0 2.775,-0.44100000000000017 2.775,-1.473 c0,-0.5960000000000003 -0.234,-1.037 -3.26,-1.334 c-2.528,-0.25 -4.093,-0.809 -4.093,-2.831 c0,-1.8650000000000002 1.572,-2.977 4.207,-2.977 c2.9610000000000003,0 4.425,1.027 4.611,3.233 c0.007000000000000006,0.07500000000000002 -0.02000000000000001,0.14800000000000008 -0.07100000000000002,0.20500000000000004 c-0.05100000000000003,0.054000000000000034 -0.12100000000000002,0.08600000000000005 -0.1960000000000001,0.08600000000000005 h-1.2 c-0.12400000000000004,0 -0.233,-0.08800000000000006 -0.259,-0.20900000000000007 c-0.28800000000000014,-1.28 -0.988,-1.689 -2.886,-1.689 c-2.126,0 -2.373,0.7400000000000003 -2.373,1.295 c0,0.6730000000000006 0.29200000000000015,0.8690000000000003 3.161,1.248 c2.84,0.37500000000000017 4.19,0.907 4.19,2.902 c0,2.014 -1.6780000000000006,3.167 -4.606,3.167 z"
            id="svg_1" class="" />
    </g>
</svg>