<?xml version="1.0" encoding="UTF-8"?>
<svg fill="#444" viewBox="0 0 34 32" xmlns="http://www.w3.org/2000/svg" xmlns:v="https://vecta.io/nano">
<path d="M19.314 15.987c0 1.321-1.071 2.392-2.392 2.392s-2.392-1.071-2.392-2.392 1.071-2.392 2.392-2.392 2.392 1.071 2.392 2.392zm-2.392 8.796c1.878 1.826 3.729 2.906 5.221 2.906.489 0 .952-.103 1.337-.334 1.337-.772 1.826-2.701 1.363-5.453l-.309-1.492 1.44-.463c2.598-1.003 4.038-2.392 4.038-3.909 0-1.543-1.44-2.932-4.038-3.909-.463-.18-.926-.334-1.44-.463l.309-1.492c.437-2.803-.051-4.758-1.389-5.53-.386-.231-.849-.334-1.337-.334-1.466 0-3.344 1.08-5.221 2.906-1.852-1.826-3.704-2.906-5.195-2.906-.489 0-.952.103-1.337.334-1.337.772-1.826 2.701-1.363 5.453l.309 1.492-1.44.463c-2.598 1.003-4.038 2.392-4.038 3.909 0 1.543 1.44 2.932 4.038 3.909.463.18.926.334 1.44.463l-.309 1.492c-.437 2.752.051 4.707 1.363 5.453.386.232.849.334 1.337.334 1.492.051 3.344-1.029 5.221-2.829zm-1.441-3.472l1.44.026 1.44-.026c-.463.617-.952 1.183-1.44 1.723l-1.44-1.723zm-3.189-2.649l.772 1.26-2.263-.386.797-2.135.694 1.26zM10.8 12.463l2.263-.386-.772 1.26-.694 1.286a17.11 17.11 0 0 1-.797-2.161zm1.415 3.524l1.106-2.083 1.26-2.006 2.341-.077 2.341.077 1.26 2.006 1.106 2.083-1.106 2.083-1.26 2.006-2.341.077a34.17 34.17 0 0 1-2.341-.077l-1.26-2.006-1.106-2.083zm10.057-1.389l-.694-1.286-.772-1.26 2.263.386-.797 2.161zm0 2.778l.797 2.135-2.263.386.772-1.26.694-1.26zm.591 8.925c-.206.129-.463.18-.746.18-1.26 0-2.829-1.029-4.372-2.572.746-.797 1.466-1.698 2.186-2.701a23.62 23.62 0 0 0 3.447-.54c.129.463.206.926.283 1.389.36 2.186.077 3.755-.797 4.244zm1.338-13.555c2.881.823 4.604 2.083 4.604 3.241 0 1.003-1.183 2.006-3.266 2.804l-1.337.437a27.01 27.01 0 0 0-1.26-3.241c.514-1.106.952-2.186 1.26-3.241zm-2.058-7.253c.283 0 .514.051.746.18.849.489 1.157 2.032.797 4.244l-.283 1.389c-1.08-.232-2.238-.412-3.447-.54-.694-1.003-1.44-1.903-2.186-2.701 1.543-1.518 3.112-2.572 4.372-2.572zm-3.781 5.17l-1.44-.026-1.44.026c.463-.617.952-1.183 1.44-1.723l1.44 1.723zm-7.382-4.99c.206-.129.463-.18.746-.18 1.26 0 2.829 1.029 4.372 2.572-.746.797-1.466 1.697-2.186 2.701a23.62 23.62 0 0 0-3.447.54c-.129-.463-.206-.926-.283-1.389-.36-2.186-.077-3.729.797-4.244zM9.643 19.228c-2.881-.823-4.604-2.083-4.604-3.241 0-1.003 1.183-2.006 3.266-2.803l1.337-.437a27.01 27.01 0 0 0 1.26 3.241c-.514 1.106-.952 2.212-1.26 3.241zm.54 2.829l.283-1.389c1.08.232 2.238.412 3.447.54.694 1.003 1.44 1.903 2.186 2.701-1.543 1.517-3.112 2.572-4.372 2.572-.283 0-.514-.051-.746-.18-.875-.489-1.157-2.058-.797-4.244z"/>
</svg>
