<svg xmlns="http://www.w3.org/2000/svg" xmlns:v="https://vecta.io/nano" fill="#444" width="26" height="26" style="">
    <rect id="backgroundrect" width="100%" height="100%" x="0" y="0" fill="none" stroke="none" class="" style="" />

    <g class="currentLayer" style="">
        <title>Layer 1</title>
        <path fill="#c33232"
            d="M15.392000508248806,12.987500917434692 c0,1.3210000000000002 -1.071,2.392 -2.392,2.392 s-2.392,-1.071 -2.392,-2.392 s1.071,-2.392 2.392,-2.392 s2.392,1.071 2.392,2.392 zm-2.392,8.796 c1.8780000000000001,1.826 3.729,2.906 5.221,2.906 c0.4890000000000003,0 0.9520000000000006,-0.10300000000000002 1.3370000000000002,-0.3340000000000006 c1.3370000000000002,-0.772 1.826,-2.701 1.363,-5.453 l-0.30900000000000044,-1.492 l1.44,-0.463 c2.598,-1.003 4.038,-2.392 4.038,-3.909 c0,-1.5430000000000001 -1.44,-2.932 -4.038,-3.909 c-0.463,-0.18000000000000022 -0.926,-0.3340000000000006 -1.44,-0.463 l0.30900000000000044,-1.492 c0.43700000000000044,-2.803 -0.05100000000000008,-4.758 -1.389,-5.53 c-0.3860000000000005,-0.231 -0.8490000000000006,-0.3340000000000006 -1.3370000000000002,-0.3340000000000006 c-1.466,0 -3.3440000000000003,1.08 -5.221,2.906 c-1.852,-1.826 -3.704,-2.906 -5.195,-2.906 c-0.4890000000000003,0 -0.9520000000000006,0.10300000000000002 -1.3370000000000002,0.3340000000000006 c-1.3370000000000002,0.772 -1.826,2.701 -1.363,5.453 l0.30900000000000044,1.492 l-1.44,0.463 c-2.598,1.003 -4.038,2.392 -4.038,3.909 c0,1.5430000000000001 1.44,2.932 4.038,3.909 c0.463,0.18000000000000022 0.926,0.3340000000000006 1.44,0.463 l-0.30900000000000044,1.492 c-0.43700000000000044,2.7520000000000002 0.05100000000000008,4.707 1.363,5.453 c0.3860000000000005,0.232 0.8490000000000006,0.3340000000000006 1.3370000000000002,0.3340000000000006 c1.492,0.05100000000000008 3.3440000000000003,-1.029 5.221,-2.829 zm-1.441,-3.472 l1.44,0.026000000000000054 l1.44,-0.026000000000000054 c-0.463,0.6170000000000009 -0.9520000000000006,1.183 -1.44,1.723 l-1.44,-1.723 zm-3.189,-2.649 l0.772,1.26 l-2.263,-0.3860000000000005 l0.797,-2.135 l0.6940000000000014,1.26 zM6.878000508248807,9.463500917434692 l2.263,-0.3860000000000005 l-0.772,1.26 l-0.6940000000000014,1.286 a17.11,17.11 0 0 1 -0.797,-2.161 zm1.415,3.524 l1.106,-2.083 l1.26,-2.006 l2.341,-0.07700000000000011 l2.341,0.07700000000000011 l1.26,2.006 l1.106,2.083 l-1.106,2.083 l-1.26,2.006 l-2.341,0.07700000000000011 a34.17,34.17 0 0 1 -2.341,-0.07700000000000011 l-1.26,-2.006 l-1.106,-2.083 zm10.057,-1.389 l-0.6940000000000014,-1.286 l-0.772,-1.26 l2.263,0.3860000000000005 l-0.797,2.161 zm0,2.778 l0.797,2.135 l-2.263,0.3860000000000005 l0.772,-1.26 l0.6940000000000014,-1.26 zm0.5910000000000006,8.925 c-0.20600000000000004,0.129 -0.463,0.18000000000000022 -0.7460000000000009,0.18000000000000022 c-1.26,0 -2.829,-1.029 -4.372,-2.572 c0.7460000000000009,-0.797 1.466,-1.6980000000000008 2.186,-2.701 a23.62,23.62 0 0 0 3.447,-0.54 c0.129,0.463 0.20600000000000004,0.926 0.2830000000000003,1.389 c0.3600000000000003,2.186 0.07700000000000011,3.755 -0.797,4.244 zm1.338,-13.555 c2.8810000000000002,0.8230000000000006 4.604,2.083 4.604,3.241 c0,1.003 -1.183,2.006 -3.266,2.8040000000000003 l-1.3370000000000002,0.43700000000000044 a27.01,27.01 0 0 0 -1.26,-3.241 c0.514,-1.106 0.9520000000000006,-2.186 1.26,-3.241 zm-2.058,-7.253 c0.2830000000000003,0 0.514,0.05100000000000008 0.7460000000000009,0.18000000000000022 c0.8490000000000006,0.4890000000000003 1.157,2.032 0.797,4.244 l-0.2830000000000003,1.389 c-1.08,-0.232 -2.238,-0.4120000000000003 -3.447,-0.54 c-0.6940000000000014,-1.003 -1.44,-1.903 -2.186,-2.701 c1.5430000000000001,-1.518 3.112,-2.572 4.372,-2.572 zm-3.781,5.17 l-1.44,-0.026000000000000054 l-1.44,0.026000000000000054 c0.463,-0.6170000000000009 0.9520000000000006,-1.183 1.44,-1.723 l1.44,1.723 zm-7.382,-4.99 c0.20600000000000004,-0.129 0.463,-0.18000000000000022 0.7460000000000009,-0.18000000000000022 c1.26,0 2.829,1.029 4.372,2.572 c-0.7460000000000009,0.797 -1.466,1.697 -2.186,2.701 a23.62,23.62 0 0 0 -3.447,0.54 c-0.129,-0.463 -0.20600000000000004,-0.926 -0.2830000000000003,-1.389 c-0.3600000000000003,-2.186 -0.07700000000000011,-3.729 0.797,-4.244 zM5.721000508248807,16.228500917434694 c-2.8810000000000002,-0.8230000000000006 -4.604,-2.083 -4.604,-3.241 c0,-1.003 1.183,-2.006 3.266,-2.803 l1.3370000000000002,-0.43700000000000044 a27.01,27.01 0 0 0 1.26,3.241 c-0.514,1.106 -0.9520000000000006,2.212 -1.26,3.241 zm0.54,2.829 l0.2830000000000003,-1.389 c1.08,0.232 2.238,0.4120000000000003 3.447,0.54 c0.6940000000000014,1.003 1.44,1.903 2.186,2.701 c-1.5430000000000001,1.517 -3.112,2.572 -4.372,2.572 c-0.2830000000000003,0 -0.514,-0.05100000000000008 -0.7460000000000009,-0.18000000000000022 c-0.8750000000000009,-0.4890000000000003 -1.157,-2.058 -0.797,-4.244 z"
            id="svg_1" class="" />
    </g>
</svg>